<svg xmlns="http://www.w3.org/2000/svg" viewBox="0 0 640 360" role="img" aria-label="Logo La Abejería fondo oscuro">
  <defs>
    <linearGradient id="bg-dark" x1="0%" y1="0%" x2="100%" y2="100%">
      <stop offset="0%" stop-color="#1a1a1a"/>
      <stop offset="100%" stop-color="#222"/>
    </linearGradient>
  </defs>
  <rect width="640" height="360" fill="url(#bg-dark)" rx="24"/>
  <g transform="translate(200 70)">
    <ellipse cx="120" cy="140" rx="26" ry="70" fill="#fef4d8" opacity="0.9"/>
    <rect x="94" y="122" width="52" height="16" fill="#f5b200"/>
    <rect x="94" y="154" width="52" height="16" fill="#f5b200"/>
    <path d="M120 50 C90 80 86 110 96 132" fill="none" stroke="#f5b200" stroke-width="10" stroke-linecap="round"/>
    <path d="M120 50 C150 80 154 110 144 132" fill="none" stroke="#f5b200" stroke-width="10" stroke-linecap="round"/>
    <ellipse cx="105" cy="116" rx="58" ry="26" fill="#fefefe" stroke="#555" stroke-width="6" opacity="0.9"/>
    <ellipse cx="135" cy="116" rx="58" ry="26" fill="#fefefe" stroke="#555" stroke-width="6" opacity="0.9"/>
    <circle cx="120" cy="72" r="16" fill="#fef4d8"/>
    <path d="M120 44 l0 -18" stroke="#f5b200" stroke-width="6" stroke-linecap="round"/>
    <circle cx="120" cy="24" r="4" fill="#f5b200"/>
    <g stroke="#f5b200" stroke-width="8" stroke-linecap="round">
      <path d="M38 120 l24 14"/>
      <path d="M202 120 l-24 14"/>
      <path d="M38 78 l24 -14"/>
      <path d="M202 78 l-24 -14"/>
    </g>
  </g>
  <text x="320" y="305" text-anchor="middle" font-family="'Manrope','Inter',sans-serif" font-size="64" fill="#f5b200" font-weight="800">LA</text>
  <text x="320" y="345" text-anchor="middle" font-family="'Manrope','Inter',sans-serif" font-size="64" fill="#f5b200" font-weight="800">ABEJERÍA</text>
</svg>
